G04 #@! TF.GenerationSoftware,KiCad,Pcbnew,10.0.0*
G04 #@! TF.CreationDate,2026-04-18T17:23:40+01:00*
G04 #@! TF.ProjectId,8bit-computer,38626974-2d63-46f6-9d70-757465722e6b,rev?*
G04 #@! TF.SameCoordinates,Original*
G04 #@! TF.FileFunction,Soldermask,Bot*
G04 #@! TF.FilePolarity,Negative*
%FSLAX46Y46*%
G04 Gerber Fmt 4.6, Leading zero omitted, Abs format (unit mm)*
G04 Created by KiCad (PCBNEW 10.0.0) date 2026-04-18 17:23:40*
%MOMM*%
%LPD*%
G01*
G04 APERTURE LIST*
G04 Aperture macros list*
%AMRoundRect*
0 Rectangle with rounded corners*
0 $1 Rounding radius*
0 $2 $3 $4 $5 $6 $7 $8 $9 X,Y pos of 4 corners*
0 Add a 4 corners polygon primitive as box body*
4,1,4,$2,$3,$4,$5,$6,$7,$8,$9,$2,$3,0*
0 Add four circle primitives for the rounded corners*
1,1,$1+$1,$2,$3*
1,1,$1+$1,$4,$5*
1,1,$1+$1,$6,$7*
1,1,$1+$1,$8,$9*
0 Add four rect primitives between the rounded corners*
20,1,$1+$1,$2,$3,$4,$5,0*
20,1,$1+$1,$4,$5,$6,$7,0*
20,1,$1+$1,$6,$7,$8,$9,0*
20,1,$1+$1,$8,$9,$2,$3,0*%
%AMFreePoly0*
4,1,43,0.586777,0.930194,0.656366,0.874698,0.694986,0.794504,0.700000,0.750000,0.700000,-0.750000,0.680194,-0.836777,0.624698,-0.906366,0.544504,-0.944986,0.500000,-0.950000,0.000000,-0.950000,-0.018743,-0.945722,-0.065263,-0.945722,-0.117026,-0.938907,-0.243105,-0.905125,-0.291342,-0.885145,-0.404381,-0.819882,-0.445802,-0.788098,-0.538098,-0.695802,-0.569882,-0.654381,-0.635145,-0.541342,
-0.655125,-0.493105,-0.688907,-0.367026,-0.695722,-0.315263,-0.695722,-0.287971,-0.700000,-0.250000,-0.700000,0.250000,-0.695722,0.268743,-0.695722,0.315263,-0.688907,0.367026,-0.655125,0.493105,-0.635145,0.541342,-0.569882,0.654381,-0.538098,0.695802,-0.445802,0.788098,-0.404381,0.819882,-0.291342,0.885145,-0.243105,0.905125,-0.117026,0.938907,-0.065263,0.945722,-0.037971,0.945722,
0.000000,0.950000,0.500000,0.950000,0.586777,0.930194,0.586777,0.930194,$1*%
%AMFreePoly1*
4,1,43,0.018743,0.945722,0.065263,0.945722,0.117026,0.938907,0.243105,0.905125,0.291342,0.885145,0.404381,0.819882,0.445802,0.788098,0.538098,0.695802,0.569882,0.654381,0.635145,0.541342,0.655125,0.493105,0.688907,0.367026,0.695722,0.315263,0.695722,0.287971,0.700000,0.250000,0.700000,-0.250000,0.695722,-0.268743,0.695722,-0.315263,0.688907,-0.367026,0.655125,-0.493105,
0.635145,-0.541342,0.569882,-0.654381,0.538098,-0.695802,0.445802,-0.788098,0.404381,-0.819882,0.291342,-0.885145,0.243105,-0.905125,0.117026,-0.938907,0.065263,-0.945722,0.037971,-0.945722,0.000000,-0.950000,-0.500000,-0.950000,-0.586777,-0.930194,-0.656366,-0.874698,-0.694986,-0.794504,-0.700000,-0.750000,-0.700000,0.750000,-0.680194,0.836777,-0.624698,0.906366,-0.544504,0.944986,
-0.500000,0.950000,0.000000,0.950000,0.018743,0.945722,0.018743,0.945722,$1*%
G04 Aperture macros list end*
%ADD10O,2.000000X2.000000*%
%ADD11RoundRect,0.200000X-0.800000X0.800000X-0.800000X-0.800000X0.800000X-0.800000X0.800000X0.800000X0*%
%ADD12RoundRect,0.200000X-0.900000X-0.900000X0.900000X-0.900000X0.900000X0.900000X-0.900000X0.900000X0*%
%ADD13C,2.200000*%
%ADD14RoundRect,0.200000X-0.800000X-0.800000X0.800000X-0.800000X0.800000X0.800000X-0.800000X0.800000X0*%
%ADD15C,2.000000*%
%ADD16RoundRect,0.200000X0.900000X0.900000X-0.900000X0.900000X-0.900000X-0.900000X0.900000X-0.900000X0*%
%ADD17RoundRect,0.200000X-0.850000X-0.850000X0.850000X-0.850000X0.850000X0.850000X-0.850000X0.850000X0*%
%ADD18C,2.100000*%
%ADD19C,3.900000*%
%ADD20RoundRect,0.200000X0.800000X-0.800000X0.800000X0.800000X-0.800000X0.800000X-0.800000X-0.800000X0*%
%ADD21C,2.400000*%
%ADD22RoundRect,0.200000X-0.762000X-1.262000X0.762000X-1.262000X0.762000X1.262000X-0.762000X1.262000X0*%
%ADD23O,1.924000X2.924000*%
%ADD24RoundRect,0.200000X0.800000X0.800000X-0.800000X0.800000X-0.800000X-0.800000X0.800000X-0.800000X0*%
%ADD25RoundRect,0.200000X0.600000X-0.600000X0.600000X0.600000X-0.600000X0.600000X-0.600000X-0.600000X0*%
%ADD26C,1.600000*%
%ADD27C,4.400000*%
%ADD28RoundRect,0.200000X-1.750000X1.750000X-1.750000X-1.750000X1.750000X-1.750000X1.750000X1.750000X0*%
%ADD29RoundRect,0.850000X-1.100000X0.850000X-1.100000X-0.850000X1.100000X-0.850000X1.100000X0.850000X0*%
%ADD30RoundRect,0.975000X-0.975000X0.975000X-0.975000X-0.975000X0.975000X-0.975000X0.975000X0.975000X0*%
%ADD31RoundRect,0.200000X0.850000X-0.850000X0.850000X0.850000X-0.850000X0.850000X-0.850000X-0.850000X0*%
%ADD32O,2.100000X2.100000*%
%ADD33RoundRect,0.200000X-0.875000X-0.875000X0.875000X-0.875000X0.875000X0.875000X-0.875000X0.875000X0*%
%ADD34C,2.150000*%
%ADD35C,3.600000*%
%ADD36RoundRect,0.200000X-0.500000X-0.500000X0.500000X-0.500000X0.500000X0.500000X-0.500000X0.500000X0*%
%ADD37FreePoly0,180.000000*%
%ADD38FreePoly1,180.000000*%
G04 APERTURE END LIST*
D10*
X46990000Y-160020000D03*
X44450000Y-160020000D03*
X41910000Y-160020000D03*
X39370000Y-160020000D03*
X36830000Y-160020000D03*
X34290000Y-160020000D03*
X31750000Y-160020000D03*
X29210000Y-160020000D03*
X26670000Y-160020000D03*
X24130000Y-160020000D03*
X24130000Y-152400000D03*
X26670000Y-152400000D03*
X29210000Y-152400000D03*
X31750000Y-152400000D03*
X34290000Y-152400000D03*
X36830000Y-152400000D03*
X39370000Y-152400000D03*
X41910000Y-152400000D03*
X44450000Y-152400000D03*
D11*
X46990000Y-152400000D03*
D12*
X233680000Y-128270000D03*
D13*
X236220000Y-128270000D03*
D12*
X240030000Y-128270000D03*
D13*
X242570000Y-128270000D03*
D12*
X246380000Y-128270000D03*
D13*
X248920000Y-128270000D03*
D12*
X252730000Y-128270000D03*
D13*
X255270000Y-128270000D03*
D12*
X259080000Y-128270000D03*
D13*
X261620000Y-128270000D03*
D12*
X265430000Y-128270000D03*
D13*
X267970000Y-128270000D03*
D12*
X271780000Y-128270000D03*
D13*
X274320000Y-128270000D03*
D12*
X278130000Y-128270000D03*
D13*
X280670000Y-128270000D03*
D12*
X179070000Y-78740000D03*
D13*
X181610000Y-78740000D03*
D12*
X185420000Y-78740000D03*
D13*
X187960000Y-78740000D03*
D12*
X191770000Y-78740000D03*
D13*
X194310000Y-78740000D03*
D12*
X198120000Y-78740000D03*
D13*
X200660000Y-78740000D03*
D11*
X54610000Y-148590000D03*
D10*
X52070000Y-148590000D03*
X49530000Y-148590000D03*
X46990000Y-148590000D03*
X44450000Y-148590000D03*
X41910000Y-148590000D03*
X39370000Y-148590000D03*
X36830000Y-148590000D03*
X34290000Y-148590000D03*
X31750000Y-148590000D03*
X29210000Y-148590000D03*
X26670000Y-148590000D03*
X24130000Y-148590000D03*
X21590000Y-148590000D03*
X19050000Y-148590000D03*
X19050000Y-163830000D03*
X21590000Y-163830000D03*
X24130000Y-163830000D03*
X26670000Y-163830000D03*
X29210000Y-163830000D03*
X31750000Y-163830000D03*
X34290000Y-163830000D03*
X36830000Y-163830000D03*
X39370000Y-163830000D03*
X41910000Y-163830000D03*
X44450000Y-163830000D03*
X46990000Y-163830000D03*
X49530000Y-163830000D03*
X52070000Y-163830000D03*
X54610000Y-163830000D03*
D14*
X286290000Y-100330000D03*
D15*
X288290000Y-100330000D03*
X81280000Y-95250000D03*
X81280000Y-90250000D03*
D11*
X115570000Y-110490000D03*
D15*
X115570000Y-112490000D03*
X116760000Y-102235000D03*
X111760000Y-102235000D03*
X85090000Y-90170000D03*
X85090000Y-95170000D03*
X105410000Y-127000000D03*
X100410000Y-127000000D03*
D11*
X115570000Y-118110000D03*
D15*
X115570000Y-120110000D03*
X116840000Y-105410000D03*
X111840000Y-105410000D03*
X75485000Y-120650000D03*
X70485000Y-120650000D03*
X200025000Y-46990000D03*
X195025000Y-46990000D03*
X287020000Y-74930000D03*
X287020000Y-69930000D03*
X292100000Y-74930000D03*
X292100000Y-69930000D03*
X263525000Y-76835000D03*
X258525000Y-76835000D03*
X46990000Y-50165000D03*
X51990000Y-50165000D03*
X58420000Y-50165000D03*
X63420000Y-50165000D03*
X242570000Y-161925000D03*
X242570000Y-166925000D03*
X247730000Y-147320000D03*
X252730000Y-147320000D03*
X247650000Y-161925000D03*
X247650000Y-166925000D03*
X233680000Y-166925000D03*
X233680000Y-161925000D03*
X237490000Y-166925000D03*
X237490000Y-161925000D03*
X71200000Y-73660000D03*
X76200000Y-73660000D03*
X110490000Y-73660000D03*
X115490000Y-73660000D03*
X41402000Y-109140000D03*
X41402000Y-104140000D03*
D16*
X225425000Y-21590000D03*
D13*
X222885000Y-21590000D03*
D16*
X219075000Y-21590000D03*
D13*
X216535000Y-21590000D03*
D16*
X212725000Y-21590000D03*
D13*
X210185000Y-21590000D03*
D16*
X206375000Y-21590000D03*
D13*
X203835000Y-21590000D03*
D16*
X200025000Y-21590000D03*
D13*
X197485000Y-21590000D03*
D16*
X193675000Y-21590000D03*
D13*
X191135000Y-21590000D03*
D16*
X187325000Y-21590000D03*
D13*
X184785000Y-21590000D03*
D16*
X180975000Y-21590000D03*
D13*
X178435000Y-21590000D03*
D12*
X77470000Y-113030000D03*
D13*
X80010000Y-113030000D03*
D12*
X92075000Y-128270000D03*
D13*
X94615000Y-128270000D03*
D12*
X178435000Y-53340000D03*
D13*
X180975000Y-53340000D03*
D12*
X184785000Y-53340000D03*
D13*
X187325000Y-53340000D03*
D12*
X191135000Y-53340000D03*
D13*
X193675000Y-53340000D03*
D12*
X197485000Y-53340000D03*
D13*
X200025000Y-53340000D03*
D12*
X203835000Y-53340000D03*
D13*
X206375000Y-53340000D03*
D12*
X210185000Y-53340000D03*
D13*
X212725000Y-53340000D03*
D12*
X216535000Y-53340000D03*
D13*
X219075000Y-53340000D03*
D12*
X289560000Y-41910000D03*
D13*
X292100000Y-41910000D03*
D12*
X16510000Y-55880000D03*
D13*
X19050000Y-55880000D03*
D12*
X22860000Y-55880000D03*
D13*
X25400000Y-55880000D03*
D12*
X29210000Y-55880000D03*
D13*
X31750000Y-55880000D03*
D12*
X35560000Y-55880000D03*
D13*
X38100000Y-55880000D03*
D12*
X17780000Y-30480000D03*
D13*
X20320000Y-30480000D03*
D12*
X41910000Y-55880000D03*
D13*
X44450000Y-55880000D03*
D12*
X48260000Y-55880000D03*
D13*
X50800000Y-55880000D03*
D12*
X54610000Y-55880000D03*
D13*
X57150000Y-55880000D03*
D12*
X60960000Y-55880000D03*
D13*
X63500000Y-55880000D03*
D16*
X72390000Y-80010000D03*
D13*
X69850000Y-80010000D03*
D16*
X78740000Y-80010000D03*
D13*
X76200000Y-80010000D03*
D16*
X85090000Y-80010000D03*
D13*
X82550000Y-80010000D03*
D16*
X91440000Y-80010000D03*
D13*
X88900000Y-80010000D03*
D16*
X97790000Y-80010000D03*
D13*
X95250000Y-80010000D03*
D16*
X104140000Y-80010000D03*
D13*
X101600000Y-80010000D03*
D16*
X110490000Y-80010000D03*
D13*
X107950000Y-80010000D03*
D16*
X116840000Y-80010000D03*
D13*
X114300000Y-80010000D03*
D12*
X16510000Y-127000000D03*
D13*
X19050000Y-127000000D03*
D12*
X22860000Y-127000000D03*
D13*
X25400000Y-127000000D03*
D16*
X40640000Y-76200000D03*
D13*
X38100000Y-76200000D03*
D12*
X29210000Y-127000000D03*
D13*
X31750000Y-127000000D03*
D12*
X35560000Y-127000000D03*
D13*
X38100000Y-127000000D03*
D12*
X41910000Y-127000000D03*
D13*
X44450000Y-127000000D03*
D12*
X48260000Y-127000000D03*
D13*
X50800000Y-127000000D03*
D12*
X54610000Y-127000000D03*
D13*
X57150000Y-127000000D03*
D12*
X60960000Y-127000000D03*
D13*
X63500000Y-127000000D03*
D16*
X40640000Y-85090000D03*
D13*
X38100000Y-85090000D03*
D12*
X204470000Y-78740000D03*
D13*
X207010000Y-78740000D03*
D12*
X210820000Y-78740000D03*
D13*
X213360000Y-78740000D03*
D12*
X217170000Y-78740000D03*
D13*
X219710000Y-78740000D03*
D12*
X223520000Y-78740000D03*
D13*
X226060000Y-78740000D03*
D12*
X69850000Y-184150000D03*
D13*
X72390000Y-184150000D03*
D12*
X76200000Y-184150000D03*
D13*
X78740000Y-184150000D03*
D12*
X82550000Y-184150000D03*
D13*
X85090000Y-184150000D03*
D12*
X88900000Y-184150000D03*
D13*
X91440000Y-184150000D03*
D12*
X95250000Y-184150000D03*
D13*
X97790000Y-184150000D03*
D12*
X101600000Y-184150000D03*
D13*
X104140000Y-184150000D03*
D12*
X107950000Y-184150000D03*
D13*
X110490000Y-184150000D03*
D12*
X114300000Y-184150000D03*
D13*
X116840000Y-184150000D03*
D12*
X123190000Y-104140000D03*
D13*
X125730000Y-104140000D03*
D12*
X129540000Y-104140000D03*
D13*
X132080000Y-104140000D03*
D12*
X135890000Y-104140000D03*
D13*
X138430000Y-104140000D03*
D12*
X142240000Y-104140000D03*
D13*
X144780000Y-104140000D03*
D12*
X148590000Y-104140000D03*
D13*
X151130000Y-104140000D03*
D12*
X154940000Y-104140000D03*
D13*
X157480000Y-104140000D03*
D12*
X161290000Y-104140000D03*
D13*
X163830000Y-104140000D03*
D12*
X167640000Y-104140000D03*
D13*
X170180000Y-104140000D03*
D12*
X147320000Y-30480000D03*
D13*
X149860000Y-30480000D03*
D12*
X147320000Y-38100000D03*
D13*
X149860000Y-38100000D03*
D12*
X217170000Y-127000000D03*
D13*
X219710000Y-127000000D03*
D12*
X217170000Y-133350000D03*
D13*
X219710000Y-133350000D03*
D12*
X217170000Y-139700000D03*
D13*
X219710000Y-139700000D03*
D12*
X123190000Y-151130000D03*
D13*
X125730000Y-151130000D03*
D12*
X148590000Y-162560000D03*
D13*
X151130000Y-162560000D03*
D12*
X129540000Y-151130000D03*
D13*
X132080000Y-151130000D03*
D12*
X135890000Y-151130000D03*
D13*
X138430000Y-151130000D03*
D12*
X186690000Y-162560000D03*
D13*
X189230000Y-162560000D03*
D12*
X142240000Y-151130000D03*
D13*
X144780000Y-151130000D03*
D12*
X193040000Y-162560000D03*
D13*
X195580000Y-162560000D03*
D12*
X148590000Y-151130000D03*
D13*
X151130000Y-151130000D03*
D12*
X199390000Y-162560000D03*
D13*
X201930000Y-162560000D03*
D12*
X218440000Y-151130000D03*
D13*
X220980000Y-151130000D03*
D17*
X293370000Y-95885000D03*
D18*
X293370000Y-98385000D03*
X295370000Y-98385000D03*
X295370000Y-95885000D03*
D19*
X298080000Y-91115000D03*
X298080000Y-103155000D03*
D15*
X86995000Y-100330000D03*
D10*
X79375000Y-100330000D03*
D15*
X86995000Y-105410000D03*
D10*
X79375000Y-105410000D03*
D15*
X116840000Y-127000000D03*
D10*
X109220000Y-127000000D03*
D15*
X101600000Y-123190000D03*
D10*
X109220000Y-123190000D03*
D15*
X85090000Y-116840000D03*
D10*
X85090000Y-109220000D03*
D15*
X115570000Y-90170000D03*
D10*
X115570000Y-97790000D03*
D15*
X79375000Y-127635000D03*
D10*
X79375000Y-120015000D03*
D15*
X109220000Y-105410000D03*
D10*
X101600000Y-105410000D03*
D15*
X85090000Y-127635000D03*
D10*
X85090000Y-120015000D03*
D15*
X303530000Y-86360000D03*
D10*
X303530000Y-78740000D03*
D15*
X299720000Y-86360000D03*
D10*
X299720000Y-78740000D03*
D15*
X39370000Y-15240000D03*
D10*
X39370000Y-22860000D03*
D15*
X35560000Y-26670000D03*
D10*
X35560000Y-34290000D03*
D15*
X30480000Y-26670000D03*
D10*
X30480000Y-34290000D03*
D15*
X25400000Y-26670000D03*
D10*
X25400000Y-34290000D03*
D15*
X233680000Y-151130000D03*
D10*
X233680000Y-158750000D03*
D15*
X249555000Y-183515000D03*
D10*
X249555000Y-175895000D03*
D15*
X237490000Y-171450000D03*
D10*
X245110000Y-171450000D03*
D15*
X39370000Y-114300000D03*
D10*
X39370000Y-121920000D03*
D15*
X44450000Y-121920000D03*
D10*
X44450000Y-114300000D03*
D15*
X39370000Y-71120000D03*
D10*
X39370000Y-63500000D03*
D15*
X39370000Y-91440000D03*
D10*
X39370000Y-99060000D03*
D20*
X91440000Y-116586000D03*
D10*
X93980000Y-116586000D03*
X96520000Y-116586000D03*
X96520000Y-108966000D03*
X93980000Y-108966000D03*
X91440000Y-108966000D03*
D20*
X19050000Y-45720000D03*
D10*
X19050000Y-38100000D03*
D20*
X238760000Y-183515000D03*
D10*
X241300000Y-183515000D03*
X243840000Y-183515000D03*
X243840000Y-175895000D03*
X241300000Y-175895000D03*
X238760000Y-175895000D03*
D21*
X17780000Y-132080000D03*
X24280000Y-132080000D03*
X17780000Y-136580000D03*
X24280000Y-136580000D03*
X55880000Y-132080000D03*
X62380000Y-132080000D03*
X55880000Y-136580000D03*
X62380000Y-136580000D03*
D11*
X115570000Y-130810000D03*
D10*
X113030000Y-130810000D03*
X110490000Y-130810000D03*
X107950000Y-130810000D03*
X105410000Y-130810000D03*
X102870000Y-130810000D03*
X100330000Y-130810000D03*
X100330000Y-138430000D03*
X102870000Y-138430000D03*
X105410000Y-138430000D03*
X107950000Y-138430000D03*
X110490000Y-138430000D03*
X113030000Y-138430000D03*
X115570000Y-138430000D03*
D14*
X69850000Y-90170000D03*
D10*
X69850000Y-92710000D03*
X69850000Y-95250000D03*
X69850000Y-97790000D03*
X77470000Y-97790000D03*
X77470000Y-95250000D03*
X77470000Y-92710000D03*
X77470000Y-90170000D03*
D11*
X86360000Y-130810000D03*
D10*
X83820000Y-130810000D03*
X81280000Y-130810000D03*
X78740000Y-130810000D03*
X76200000Y-130810000D03*
X73660000Y-130810000D03*
X71120000Y-130810000D03*
X71120000Y-138430000D03*
X73660000Y-138430000D03*
X76200000Y-138430000D03*
X78740000Y-138430000D03*
X81280000Y-138430000D03*
X83820000Y-138430000D03*
X86360000Y-138430000D03*
D14*
X101600000Y-110490000D03*
D10*
X101600000Y-113030000D03*
X101600000Y-115570000D03*
X101600000Y-118110000D03*
X109220000Y-118110000D03*
X109220000Y-115570000D03*
X109220000Y-113030000D03*
X109220000Y-110490000D03*
D14*
X103505000Y-90170000D03*
D10*
X103505000Y-92710000D03*
X103505000Y-95250000D03*
X103505000Y-97790000D03*
X111125000Y-97790000D03*
X111125000Y-95250000D03*
X111125000Y-92710000D03*
X111125000Y-90170000D03*
D20*
X204470000Y-41910000D03*
D10*
X207010000Y-41910000D03*
X209550000Y-41910000D03*
X212090000Y-41910000D03*
X214630000Y-41910000D03*
X217170000Y-41910000D03*
X219710000Y-41910000D03*
X222250000Y-41910000D03*
X224790000Y-41910000D03*
X227330000Y-41910000D03*
X227330000Y-34290000D03*
X224790000Y-34290000D03*
X222250000Y-34290000D03*
X219710000Y-34290000D03*
X217170000Y-34290000D03*
X214630000Y-34290000D03*
X212090000Y-34290000D03*
X209550000Y-34290000D03*
X207010000Y-34290000D03*
X204470000Y-34290000D03*
D20*
X177165000Y-41910000D03*
D10*
X179705000Y-41910000D03*
X182245000Y-41910000D03*
X184785000Y-41910000D03*
X187325000Y-41910000D03*
X189865000Y-41910000D03*
X192405000Y-41910000D03*
X194945000Y-41910000D03*
X197485000Y-41910000D03*
X200025000Y-41910000D03*
X200025000Y-34290000D03*
X197485000Y-34290000D03*
X194945000Y-34290000D03*
X192405000Y-34290000D03*
X189865000Y-34290000D03*
X187325000Y-34290000D03*
X184785000Y-34290000D03*
X182245000Y-34290000D03*
X179705000Y-34290000D03*
X177165000Y-34290000D03*
D20*
X45720000Y-22860000D03*
D10*
X48260000Y-22860000D03*
X50800000Y-22860000D03*
X53340000Y-22860000D03*
X55880000Y-22860000D03*
X58420000Y-22860000D03*
X60960000Y-22860000D03*
X63500000Y-22860000D03*
X63500000Y-15240000D03*
X60960000Y-15240000D03*
X58420000Y-15240000D03*
X55880000Y-15240000D03*
X53340000Y-15240000D03*
X50800000Y-15240000D03*
X48260000Y-15240000D03*
X45720000Y-15240000D03*
D20*
X17780000Y-22860000D03*
D10*
X20320000Y-22860000D03*
X22860000Y-22860000D03*
X25400000Y-22860000D03*
X27940000Y-22860000D03*
X30480000Y-22860000D03*
X33020000Y-22860000D03*
X35560000Y-22860000D03*
X35560000Y-15240000D03*
X33020000Y-15240000D03*
X30480000Y-15240000D03*
X27940000Y-15240000D03*
X25400000Y-15240000D03*
X22860000Y-15240000D03*
X20320000Y-15240000D03*
X17780000Y-15240000D03*
D20*
X40640000Y-34290000D03*
D10*
X43180000Y-34290000D03*
X45720000Y-34290000D03*
X48260000Y-34290000D03*
X50800000Y-34290000D03*
X53340000Y-34290000D03*
X55880000Y-34290000D03*
X58420000Y-34290000D03*
X60960000Y-34290000D03*
X63500000Y-34290000D03*
X63500000Y-26670000D03*
X60960000Y-26670000D03*
X58420000Y-26670000D03*
X55880000Y-26670000D03*
X53340000Y-26670000D03*
X50800000Y-26670000D03*
X48260000Y-26670000D03*
X45720000Y-26670000D03*
X43180000Y-26670000D03*
X40640000Y-26670000D03*
D20*
X287020000Y-115570000D03*
D10*
X289560000Y-115570000D03*
X292100000Y-115570000D03*
X294640000Y-115570000D03*
X297180000Y-115570000D03*
X299720000Y-115570000D03*
X302260000Y-115570000D03*
X302260000Y-107950000D03*
X299720000Y-107950000D03*
X297180000Y-107950000D03*
X294640000Y-107950000D03*
X292100000Y-107950000D03*
X289560000Y-107950000D03*
X287020000Y-107950000D03*
D20*
X240030000Y-158750000D03*
D10*
X242570000Y-158750000D03*
X245110000Y-158750000D03*
X247650000Y-158750000D03*
X247650000Y-151130000D03*
X245110000Y-151130000D03*
X242570000Y-151130000D03*
X240030000Y-151130000D03*
D11*
X303530000Y-147320000D03*
D10*
X300990000Y-147320000D03*
X298450000Y-147320000D03*
X295910000Y-147320000D03*
X293370000Y-147320000D03*
X290830000Y-147320000D03*
X288290000Y-147320000D03*
X285750000Y-147320000D03*
X283210000Y-147320000D03*
X280670000Y-147320000D03*
X278130000Y-147320000D03*
X275590000Y-147320000D03*
X273050000Y-147320000D03*
X270510000Y-147320000D03*
X270510000Y-162560000D03*
X273050000Y-162560000D03*
X275590000Y-162560000D03*
X278130000Y-162560000D03*
X280670000Y-162560000D03*
X283210000Y-162560000D03*
X285750000Y-162560000D03*
X288290000Y-162560000D03*
X290830000Y-162560000D03*
X293370000Y-162560000D03*
X295910000Y-162560000D03*
X298450000Y-162560000D03*
X300990000Y-162560000D03*
X303530000Y-162560000D03*
D11*
X248920000Y-135890000D03*
D10*
X246380000Y-135890000D03*
X243840000Y-135890000D03*
X241300000Y-135890000D03*
X238760000Y-135890000D03*
X236220000Y-135890000D03*
X233680000Y-135890000D03*
X233680000Y-143510000D03*
X236220000Y-143510000D03*
X238760000Y-143510000D03*
X241300000Y-143510000D03*
X243840000Y-143510000D03*
X246380000Y-143510000D03*
X248920000Y-143510000D03*
D22*
X254102000Y-182880000D03*
D23*
X256642000Y-182880000D03*
X259182000Y-182880000D03*
X261722000Y-182880000D03*
X264262000Y-182880000D03*
X264262000Y-167640000D03*
X261722000Y-167640000D03*
X259182000Y-167640000D03*
X256642000Y-167640000D03*
X254102000Y-167640000D03*
D11*
X303530000Y-135890000D03*
D10*
X300990000Y-135890000D03*
X298450000Y-135890000D03*
X295910000Y-135890000D03*
X293370000Y-135890000D03*
X290830000Y-135890000D03*
X288290000Y-135890000D03*
X285750000Y-135890000D03*
X285750000Y-143510000D03*
X288290000Y-143510000D03*
X290830000Y-143510000D03*
X293370000Y-143510000D03*
X295910000Y-143510000D03*
X298450000Y-143510000D03*
X300990000Y-143510000D03*
X303530000Y-143510000D03*
D22*
X267259000Y-182880000D03*
D23*
X269799000Y-182880000D03*
X272339000Y-182880000D03*
X274879000Y-182880000D03*
X277419000Y-182880000D03*
X277419000Y-167640000D03*
X274879000Y-167640000D03*
X272339000Y-167640000D03*
X269799000Y-167640000D03*
X267259000Y-167640000D03*
D22*
X280416000Y-182880000D03*
D23*
X282956000Y-182880000D03*
X285496000Y-182880000D03*
X288036000Y-182880000D03*
X290576000Y-182880000D03*
X290576000Y-167640000D03*
X288036000Y-167640000D03*
X285496000Y-167640000D03*
X282956000Y-167640000D03*
X280416000Y-167640000D03*
D22*
X293573000Y-182880000D03*
D23*
X296113000Y-182880000D03*
X298653000Y-182880000D03*
X301193000Y-182880000D03*
X303733000Y-182880000D03*
X303733000Y-167640000D03*
X301193000Y-167640000D03*
X298653000Y-167640000D03*
X296113000Y-167640000D03*
X293573000Y-167640000D03*
D14*
X88900000Y-47625000D03*
D10*
X88900000Y-50165000D03*
X88900000Y-52705000D03*
X88900000Y-55245000D03*
X88900000Y-57785000D03*
X88900000Y-60325000D03*
X88900000Y-62865000D03*
X88900000Y-65405000D03*
X88900000Y-67945000D03*
X88900000Y-70485000D03*
X96520000Y-70485000D03*
X96520000Y-67945000D03*
X96520000Y-65405000D03*
X96520000Y-62865000D03*
X96520000Y-60325000D03*
X96520000Y-57785000D03*
X96520000Y-55245000D03*
X96520000Y-52705000D03*
X96520000Y-50165000D03*
X96520000Y-47625000D03*
D24*
X116840000Y-66040000D03*
D10*
X116840000Y-63500000D03*
X116840000Y-60960000D03*
X116840000Y-58420000D03*
X116840000Y-55880000D03*
X116840000Y-53340000D03*
X116840000Y-50800000D03*
X116840000Y-48260000D03*
X109220000Y-48260000D03*
X109220000Y-50800000D03*
X109220000Y-53340000D03*
X109220000Y-55880000D03*
X109220000Y-58420000D03*
X109220000Y-60960000D03*
X109220000Y-63500000D03*
X109220000Y-66040000D03*
D24*
X77470000Y-66040000D03*
D10*
X77470000Y-63500000D03*
X77470000Y-60960000D03*
X77470000Y-58420000D03*
X77470000Y-55880000D03*
X77470000Y-53340000D03*
X77470000Y-50800000D03*
X77470000Y-48260000D03*
X69850000Y-48260000D03*
X69850000Y-50800000D03*
X69850000Y-53340000D03*
X69850000Y-55880000D03*
X69850000Y-58420000D03*
X69850000Y-60960000D03*
X69850000Y-63500000D03*
X69850000Y-66040000D03*
D20*
X17780000Y-121920000D03*
D10*
X20320000Y-121920000D03*
X22860000Y-121920000D03*
X25400000Y-121920000D03*
X27940000Y-121920000D03*
X30480000Y-121920000D03*
X33020000Y-121920000D03*
X35560000Y-121920000D03*
X35560000Y-114300000D03*
X33020000Y-114300000D03*
X30480000Y-114300000D03*
X27940000Y-114300000D03*
X25400000Y-114300000D03*
X22860000Y-114300000D03*
X20320000Y-114300000D03*
X17780000Y-114300000D03*
D24*
X52070000Y-87630000D03*
D10*
X52070000Y-85090000D03*
X52070000Y-82550000D03*
X52070000Y-80010000D03*
X52070000Y-77470000D03*
X52070000Y-74930000D03*
X52070000Y-72390000D03*
X52070000Y-69850000D03*
X52070000Y-67310000D03*
X52070000Y-64770000D03*
X44450000Y-64770000D03*
X44450000Y-67310000D03*
X44450000Y-69850000D03*
X44450000Y-72390000D03*
X44450000Y-74930000D03*
X44450000Y-77470000D03*
X44450000Y-80010000D03*
X44450000Y-82550000D03*
X44450000Y-85090000D03*
X44450000Y-87630000D03*
D14*
X55880000Y-64770000D03*
D10*
X55880000Y-67310000D03*
X55880000Y-69850000D03*
X55880000Y-72390000D03*
X55880000Y-74930000D03*
X55880000Y-77470000D03*
X55880000Y-80010000D03*
X55880000Y-82550000D03*
X55880000Y-85090000D03*
X55880000Y-87630000D03*
X63500000Y-87630000D03*
X63500000Y-85090000D03*
X63500000Y-82550000D03*
X63500000Y-80010000D03*
X63500000Y-77470000D03*
X63500000Y-74930000D03*
X63500000Y-72390000D03*
X63500000Y-69850000D03*
X63500000Y-67310000D03*
X63500000Y-64770000D03*
D14*
X55880000Y-92710000D03*
D10*
X55880000Y-95250000D03*
X55880000Y-97790000D03*
X55880000Y-100330000D03*
X55880000Y-102870000D03*
X55880000Y-105410000D03*
X55880000Y-107950000D03*
X55880000Y-110490000D03*
X63500000Y-110490000D03*
X63500000Y-107950000D03*
X63500000Y-105410000D03*
X63500000Y-102870000D03*
X63500000Y-100330000D03*
X63500000Y-97790000D03*
X63500000Y-95250000D03*
X63500000Y-92710000D03*
D14*
X44450000Y-92710000D03*
D10*
X44450000Y-95250000D03*
X44450000Y-97790000D03*
X44450000Y-100330000D03*
X44450000Y-102870000D03*
X44450000Y-105410000D03*
X44450000Y-107950000D03*
X44450000Y-110490000D03*
X52070000Y-110490000D03*
X52070000Y-107950000D03*
X52070000Y-105410000D03*
X52070000Y-102870000D03*
X52070000Y-100330000D03*
X52070000Y-97790000D03*
X52070000Y-95250000D03*
X52070000Y-92710000D03*
D20*
X234950000Y-115570000D03*
D10*
X237490000Y-115570000D03*
X240030000Y-115570000D03*
X242570000Y-115570000D03*
X245110000Y-115570000D03*
X247650000Y-115570000D03*
X250190000Y-115570000D03*
X252730000Y-115570000D03*
X255270000Y-115570000D03*
X257810000Y-115570000D03*
X257810000Y-107950000D03*
X255270000Y-107950000D03*
X252730000Y-107950000D03*
X250190000Y-107950000D03*
X247650000Y-107950000D03*
X245110000Y-107950000D03*
X242570000Y-107950000D03*
X240030000Y-107950000D03*
X237490000Y-107950000D03*
X234950000Y-107950000D03*
D20*
X262890000Y-115570000D03*
D10*
X265430000Y-115570000D03*
X267970000Y-115570000D03*
X270510000Y-115570000D03*
X273050000Y-115570000D03*
X275590000Y-115570000D03*
X278130000Y-115570000D03*
X280670000Y-115570000D03*
X280670000Y-107950000D03*
X278130000Y-107950000D03*
X275590000Y-107950000D03*
X273050000Y-107950000D03*
X270510000Y-107950000D03*
X267970000Y-107950000D03*
X265430000Y-107950000D03*
X262890000Y-107950000D03*
D20*
X285750000Y-128270000D03*
D10*
X288290000Y-128270000D03*
X290830000Y-128270000D03*
X293370000Y-128270000D03*
X295910000Y-128270000D03*
X298450000Y-128270000D03*
X300990000Y-128270000D03*
X303530000Y-128270000D03*
X303530000Y-120650000D03*
X300990000Y-120650000D03*
X298450000Y-120650000D03*
X295910000Y-120650000D03*
X293370000Y-120650000D03*
X290830000Y-120650000D03*
X288290000Y-120650000D03*
X285750000Y-120650000D03*
D20*
X204470000Y-67310000D03*
D10*
X207010000Y-67310000D03*
X209550000Y-67310000D03*
X212090000Y-67310000D03*
X214630000Y-67310000D03*
X217170000Y-67310000D03*
X219710000Y-67310000D03*
X222250000Y-67310000D03*
X224790000Y-67310000D03*
X227330000Y-67310000D03*
X227330000Y-59690000D03*
X224790000Y-59690000D03*
X222250000Y-59690000D03*
X219710000Y-59690000D03*
X217170000Y-59690000D03*
X214630000Y-59690000D03*
X212090000Y-59690000D03*
X209550000Y-59690000D03*
X207010000Y-59690000D03*
X204470000Y-59690000D03*
D20*
X177165000Y-67310000D03*
D10*
X179705000Y-67310000D03*
X182245000Y-67310000D03*
X184785000Y-67310000D03*
X187325000Y-67310000D03*
X189865000Y-67310000D03*
X192405000Y-67310000D03*
X194945000Y-67310000D03*
X197485000Y-67310000D03*
X200025000Y-67310000D03*
X200025000Y-59690000D03*
X197485000Y-59690000D03*
X194945000Y-59690000D03*
X192405000Y-59690000D03*
X189865000Y-59690000D03*
X187325000Y-59690000D03*
X184785000Y-59690000D03*
X182245000Y-59690000D03*
X179705000Y-59690000D03*
X177165000Y-59690000D03*
D20*
X71120000Y-163830000D03*
D10*
X73660000Y-163830000D03*
X76200000Y-163830000D03*
X78740000Y-163830000D03*
X81280000Y-163830000D03*
X83820000Y-163830000D03*
X86360000Y-163830000D03*
X86360000Y-156210000D03*
X83820000Y-156210000D03*
X81280000Y-156210000D03*
X78740000Y-156210000D03*
X76200000Y-156210000D03*
X73660000Y-156210000D03*
X71120000Y-156210000D03*
D11*
X115570000Y-156210000D03*
D10*
X113030000Y-156210000D03*
X110490000Y-156210000D03*
X107950000Y-156210000D03*
X105410000Y-156210000D03*
X102870000Y-156210000D03*
X100330000Y-156210000D03*
X97790000Y-156210000D03*
X95250000Y-156210000D03*
X92710000Y-156210000D03*
X92710000Y-163830000D03*
X95250000Y-163830000D03*
X97790000Y-163830000D03*
X100330000Y-163830000D03*
X102870000Y-163830000D03*
X105410000Y-163830000D03*
X107950000Y-163830000D03*
X110490000Y-163830000D03*
X113030000Y-163830000D03*
X115570000Y-163830000D03*
D14*
X135890000Y-48260000D03*
D10*
X135890000Y-50800000D03*
X135890000Y-53340000D03*
X135890000Y-55880000D03*
X135890000Y-58420000D03*
X135890000Y-60960000D03*
X135890000Y-63500000D03*
X135890000Y-66040000D03*
X143510000Y-66040000D03*
X143510000Y-63500000D03*
X143510000Y-60960000D03*
X143510000Y-58420000D03*
X143510000Y-55880000D03*
X143510000Y-53340000D03*
X143510000Y-50800000D03*
X143510000Y-48260000D03*
D11*
X154940000Y-72390000D03*
D10*
X152400000Y-72390000D03*
X149860000Y-72390000D03*
X147320000Y-72390000D03*
X144780000Y-72390000D03*
X142240000Y-72390000D03*
X139700000Y-72390000D03*
X137160000Y-72390000D03*
X137160000Y-80010000D03*
X139700000Y-80010000D03*
X142240000Y-80010000D03*
X144780000Y-80010000D03*
X147320000Y-80010000D03*
X149860000Y-80010000D03*
X152400000Y-80010000D03*
X154940000Y-80010000D03*
D14*
X161290000Y-48260000D03*
D10*
X161290000Y-50800000D03*
X161290000Y-53340000D03*
X161290000Y-55880000D03*
X161290000Y-58420000D03*
X161290000Y-60960000D03*
X161290000Y-63500000D03*
X161290000Y-66040000D03*
X161290000Y-68580000D03*
X161290000Y-71120000D03*
X168910000Y-71120000D03*
X168910000Y-68580000D03*
X168910000Y-66040000D03*
X168910000Y-63500000D03*
X168910000Y-60960000D03*
X168910000Y-58420000D03*
X168910000Y-55880000D03*
X168910000Y-53340000D03*
X168910000Y-50800000D03*
X168910000Y-48260000D03*
D14*
X123190000Y-48260000D03*
D10*
X123190000Y-50800000D03*
X123190000Y-53340000D03*
X123190000Y-55880000D03*
X123190000Y-58420000D03*
X123190000Y-60960000D03*
X123190000Y-63500000D03*
X123190000Y-66040000D03*
X123190000Y-68580000D03*
X123190000Y-71120000D03*
X130810000Y-71120000D03*
X130810000Y-68580000D03*
X130810000Y-66040000D03*
X130810000Y-63500000D03*
X130810000Y-60960000D03*
X130810000Y-58420000D03*
X130810000Y-55880000D03*
X130810000Y-53340000D03*
X130810000Y-50800000D03*
X130810000Y-48260000D03*
D14*
X148590000Y-48260000D03*
D10*
X148590000Y-50800000D03*
X148590000Y-53340000D03*
X148590000Y-55880000D03*
X148590000Y-58420000D03*
X148590000Y-60960000D03*
X148590000Y-63500000D03*
X148590000Y-66040000D03*
X156210000Y-66040000D03*
X156210000Y-63500000D03*
X156210000Y-60960000D03*
X156210000Y-58420000D03*
X156210000Y-55880000D03*
X156210000Y-53340000D03*
X156210000Y-50800000D03*
X156210000Y-48260000D03*
D11*
X140970000Y-85090000D03*
D10*
X138430000Y-85090000D03*
X135890000Y-85090000D03*
X133350000Y-85090000D03*
X130810000Y-85090000D03*
X128270000Y-85090000D03*
X125730000Y-85090000D03*
X123190000Y-85090000D03*
X123190000Y-92710000D03*
X125730000Y-92710000D03*
X128270000Y-92710000D03*
X130810000Y-92710000D03*
X133350000Y-92710000D03*
X135890000Y-92710000D03*
X138430000Y-92710000D03*
X140970000Y-92710000D03*
D11*
X115570000Y-33020000D03*
D10*
X113030000Y-33020000D03*
X110490000Y-33020000D03*
X107950000Y-33020000D03*
X105410000Y-33020000D03*
X102870000Y-33020000D03*
X100330000Y-33020000D03*
X100330000Y-40640000D03*
X102870000Y-40640000D03*
X105410000Y-40640000D03*
X107950000Y-40640000D03*
X110490000Y-40640000D03*
X113030000Y-40640000D03*
X115570000Y-40640000D03*
D20*
X71120000Y-40640000D03*
D10*
X73660000Y-40640000D03*
X76200000Y-40640000D03*
X78740000Y-40640000D03*
X81280000Y-40640000D03*
X83820000Y-40640000D03*
X86360000Y-40640000D03*
X88900000Y-40640000D03*
X91440000Y-40640000D03*
X93980000Y-40640000D03*
X93980000Y-33020000D03*
X91440000Y-33020000D03*
X88900000Y-33020000D03*
X86360000Y-33020000D03*
X83820000Y-33020000D03*
X81280000Y-33020000D03*
X78740000Y-33020000D03*
X76200000Y-33020000D03*
X73660000Y-33020000D03*
X71120000Y-33020000D03*
D20*
X207010000Y-185420000D03*
D10*
X209550000Y-185420000D03*
X212090000Y-185420000D03*
X214630000Y-185420000D03*
X217170000Y-185420000D03*
X219710000Y-185420000D03*
X222250000Y-185420000D03*
X224790000Y-185420000D03*
X224790000Y-177800000D03*
X222250000Y-177800000D03*
X219710000Y-177800000D03*
X217170000Y-177800000D03*
X214630000Y-177800000D03*
X212090000Y-177800000D03*
X209550000Y-177800000D03*
X207010000Y-177800000D03*
D11*
X270510000Y-93980000D03*
D10*
X267970000Y-93980000D03*
X265430000Y-93980000D03*
X262890000Y-93980000D03*
X260350000Y-93980000D03*
X257810000Y-93980000D03*
X255270000Y-93980000D03*
X255270000Y-101600000D03*
X257810000Y-101600000D03*
X260350000Y-101600000D03*
X262890000Y-101600000D03*
X265430000Y-101600000D03*
X267970000Y-101600000D03*
X270510000Y-101600000D03*
D14*
X295910000Y-16510000D03*
D10*
X295910000Y-19050000D03*
X295910000Y-21590000D03*
X295910000Y-24130000D03*
X295910000Y-26670000D03*
X295910000Y-29210000D03*
X295910000Y-31750000D03*
X295910000Y-34290000D03*
X303530000Y-34290000D03*
X303530000Y-31750000D03*
X303530000Y-29210000D03*
X303530000Y-26670000D03*
X303530000Y-24130000D03*
X303530000Y-21590000D03*
X303530000Y-19050000D03*
X303530000Y-16510000D03*
D14*
X271780000Y-16510000D03*
D10*
X271780000Y-19050000D03*
X271780000Y-21590000D03*
X271780000Y-24130000D03*
X271780000Y-26670000D03*
X271780000Y-29210000D03*
X271780000Y-31750000D03*
X279400000Y-31750000D03*
X279400000Y-29210000D03*
X279400000Y-26670000D03*
X279400000Y-24130000D03*
X279400000Y-21590000D03*
X279400000Y-19050000D03*
X279400000Y-16510000D03*
D14*
X284480000Y-16510000D03*
D10*
X284480000Y-19050000D03*
X284480000Y-21590000D03*
X284480000Y-24130000D03*
X284480000Y-26670000D03*
X284480000Y-29210000D03*
X284480000Y-31750000D03*
X292100000Y-31750000D03*
X292100000Y-29210000D03*
X292100000Y-26670000D03*
X292100000Y-24130000D03*
X292100000Y-21590000D03*
X292100000Y-19050000D03*
X292100000Y-16510000D03*
D11*
X274320000Y-82550000D03*
D10*
X271780000Y-82550000D03*
X269240000Y-82550000D03*
X266700000Y-82550000D03*
X264160000Y-82550000D03*
X261620000Y-82550000D03*
X259080000Y-82550000D03*
X259080000Y-90170000D03*
X261620000Y-90170000D03*
X264160000Y-90170000D03*
X266700000Y-90170000D03*
X269240000Y-90170000D03*
X271780000Y-90170000D03*
X274320000Y-90170000D03*
D24*
X254000000Y-63500000D03*
D10*
X254000000Y-60960000D03*
X254000000Y-58420000D03*
X254000000Y-55880000D03*
X254000000Y-53340000D03*
X254000000Y-50800000D03*
X254000000Y-48260000D03*
X246380000Y-48260000D03*
X246380000Y-50800000D03*
X246380000Y-53340000D03*
X246380000Y-55880000D03*
X246380000Y-58420000D03*
X246380000Y-60960000D03*
X246380000Y-63500000D03*
D14*
X271780000Y-48260000D03*
D10*
X271780000Y-50800000D03*
X271780000Y-53340000D03*
X271780000Y-55880000D03*
X271780000Y-58420000D03*
X271780000Y-60960000D03*
X271780000Y-63500000D03*
X271780000Y-66040000D03*
X279400000Y-66040000D03*
X279400000Y-63500000D03*
X279400000Y-60960000D03*
X279400000Y-58420000D03*
X279400000Y-55880000D03*
X279400000Y-53340000D03*
X279400000Y-50800000D03*
X279400000Y-48260000D03*
D24*
X254000000Y-86360000D03*
D10*
X254000000Y-83820000D03*
X254000000Y-81280000D03*
X254000000Y-78740000D03*
X254000000Y-76200000D03*
X254000000Y-73660000D03*
X254000000Y-71120000D03*
X246380000Y-71120000D03*
X246380000Y-73660000D03*
X246380000Y-76200000D03*
X246380000Y-78740000D03*
X246380000Y-81280000D03*
X246380000Y-83820000D03*
X246380000Y-86360000D03*
D14*
X284480000Y-48260000D03*
D10*
X284480000Y-50800000D03*
X284480000Y-53340000D03*
X284480000Y-55880000D03*
X284480000Y-58420000D03*
X284480000Y-60960000D03*
X284480000Y-63500000D03*
X284480000Y-66040000D03*
X292100000Y-66040000D03*
X292100000Y-63500000D03*
X292100000Y-60960000D03*
X292100000Y-58420000D03*
X292100000Y-55880000D03*
X292100000Y-53340000D03*
X292100000Y-50800000D03*
X292100000Y-48260000D03*
D14*
X259080000Y-48260000D03*
D10*
X259080000Y-50800000D03*
X259080000Y-53340000D03*
X259080000Y-55880000D03*
X259080000Y-58420000D03*
X259080000Y-60960000D03*
X259080000Y-63500000D03*
X259080000Y-66040000D03*
X259080000Y-68580000D03*
X259080000Y-71120000D03*
X266700000Y-71120000D03*
X266700000Y-68580000D03*
X266700000Y-66040000D03*
X266700000Y-63500000D03*
X266700000Y-60960000D03*
X266700000Y-58420000D03*
X266700000Y-55880000D03*
X266700000Y-53340000D03*
X266700000Y-50800000D03*
X266700000Y-48260000D03*
D14*
X259080000Y-16510000D03*
D10*
X259080000Y-19050000D03*
X259080000Y-21590000D03*
X259080000Y-24130000D03*
X259080000Y-26670000D03*
X259080000Y-29210000D03*
X259080000Y-31750000D03*
X259080000Y-34290000D03*
X266700000Y-34290000D03*
X266700000Y-31750000D03*
X266700000Y-29210000D03*
X266700000Y-26670000D03*
X266700000Y-24130000D03*
X266700000Y-21590000D03*
X266700000Y-19050000D03*
X266700000Y-16510000D03*
D14*
X233680000Y-45720000D03*
D10*
X233680000Y-48260000D03*
X233680000Y-50800000D03*
X233680000Y-53340000D03*
X233680000Y-55880000D03*
X233680000Y-58420000D03*
X233680000Y-60960000D03*
X233680000Y-63500000D03*
X241300000Y-63500000D03*
X241300000Y-60960000D03*
X241300000Y-58420000D03*
X241300000Y-55880000D03*
X241300000Y-53340000D03*
X241300000Y-50800000D03*
X241300000Y-48260000D03*
X241300000Y-45720000D03*
D14*
X233680000Y-71120000D03*
D10*
X233680000Y-73660000D03*
X233680000Y-76200000D03*
X233680000Y-78740000D03*
X233680000Y-81280000D03*
X233680000Y-83820000D03*
X233680000Y-86360000D03*
X233680000Y-88900000D03*
X241300000Y-88900000D03*
X241300000Y-86360000D03*
X241300000Y-83820000D03*
X241300000Y-81280000D03*
X241300000Y-78740000D03*
X241300000Y-76200000D03*
X241300000Y-73660000D03*
X241300000Y-71120000D03*
D14*
X246380000Y-16510000D03*
D10*
X246380000Y-19050000D03*
X246380000Y-21590000D03*
X246380000Y-24130000D03*
X246380000Y-26670000D03*
X246380000Y-29210000D03*
X246380000Y-31750000D03*
X246380000Y-34290000D03*
X254000000Y-34290000D03*
X254000000Y-31750000D03*
X254000000Y-29210000D03*
X254000000Y-26670000D03*
X254000000Y-24130000D03*
X254000000Y-21590000D03*
X254000000Y-19050000D03*
X254000000Y-16510000D03*
D16*
X275082000Y-77724000D03*
D13*
X272542000Y-77724000D03*
D12*
X272542000Y-71755000D03*
D13*
X275082000Y-71755000D03*
D15*
X75485000Y-125730000D03*
X70485000Y-125730000D03*
X182245000Y-46990000D03*
X177245000Y-46990000D03*
X121920000Y-33020000D03*
D10*
X121920000Y-40640000D03*
D15*
X148590000Y-177546000D03*
D10*
X148590000Y-185166000D03*
D14*
X233680000Y-16510000D03*
D10*
X233680000Y-19050000D03*
X233680000Y-21590000D03*
X233680000Y-24130000D03*
X233680000Y-26670000D03*
X233680000Y-29210000D03*
X233680000Y-31750000D03*
X233680000Y-34290000D03*
X233680000Y-36830000D03*
X233680000Y-39370000D03*
X241300000Y-39370000D03*
X241300000Y-36830000D03*
X241300000Y-34290000D03*
X241300000Y-31750000D03*
X241300000Y-29210000D03*
X241300000Y-26670000D03*
X241300000Y-24130000D03*
X241300000Y-21590000D03*
X241300000Y-19050000D03*
X241300000Y-16510000D03*
D15*
X128270000Y-33020000D03*
D10*
X128270000Y-40640000D03*
D12*
X222885000Y-53340000D03*
D13*
X225425000Y-53340000D03*
D12*
X276860000Y-41910000D03*
D13*
X279400000Y-41910000D03*
D12*
X270510000Y-41910000D03*
D13*
X273050000Y-41910000D03*
D12*
X245110000Y-41910000D03*
D13*
X247650000Y-41910000D03*
D12*
X257810000Y-41910000D03*
D13*
X260350000Y-41910000D03*
D12*
X283210000Y-41910000D03*
D13*
X285750000Y-41910000D03*
D12*
X264160000Y-41910000D03*
D13*
X266700000Y-41910000D03*
D12*
X251460000Y-41910000D03*
D13*
X254000000Y-41910000D03*
D11*
X115570000Y-143510000D03*
D10*
X113030000Y-143510000D03*
X110490000Y-143510000D03*
X107950000Y-143510000D03*
X105410000Y-143510000D03*
X102870000Y-143510000D03*
X100330000Y-143510000D03*
X100330000Y-151130000D03*
X102870000Y-151130000D03*
X105410000Y-151130000D03*
X107950000Y-151130000D03*
X110490000Y-151130000D03*
X113030000Y-151130000D03*
X115570000Y-151130000D03*
D20*
X48260000Y-121920000D03*
D10*
X50800000Y-121920000D03*
X53340000Y-121920000D03*
X55880000Y-121920000D03*
X58420000Y-121920000D03*
X60960000Y-121920000D03*
X63500000Y-121920000D03*
X63500000Y-114300000D03*
X60960000Y-114300000D03*
X58420000Y-114300000D03*
X55880000Y-114300000D03*
X53340000Y-114300000D03*
X50800000Y-114300000D03*
X48260000Y-114300000D03*
D14*
X17780000Y-64770000D03*
D10*
X17780000Y-67310000D03*
X17780000Y-69850000D03*
X17780000Y-72390000D03*
X17780000Y-74930000D03*
X17780000Y-77470000D03*
X17780000Y-80010000D03*
X17780000Y-82550000D03*
X17780000Y-85090000D03*
X17780000Y-87630000D03*
X17780000Y-90170000D03*
X17780000Y-92710000D03*
X17780000Y-95250000D03*
X17780000Y-97790000D03*
X33020000Y-97790000D03*
X33020000Y-95250000D03*
X33020000Y-92710000D03*
X33020000Y-90170000D03*
X33020000Y-87630000D03*
X33020000Y-85090000D03*
X33020000Y-82550000D03*
X33020000Y-80010000D03*
X33020000Y-77470000D03*
X33020000Y-74930000D03*
X33020000Y-72390000D03*
X33020000Y-69850000D03*
X33020000Y-67310000D03*
X33020000Y-64770000D03*
D21*
X90020000Y-132660000D03*
X96520000Y-132660000D03*
X90020000Y-137160000D03*
X96520000Y-137160000D03*
D25*
X71120000Y-115570000D03*
D26*
X71120000Y-113030000D03*
X71120000Y-110490000D03*
X73660000Y-115570000D03*
X73660000Y-113030000D03*
X73660000Y-110490000D03*
D11*
X62230000Y-38100000D03*
D10*
X59690000Y-38100000D03*
X57150000Y-38100000D03*
X54610000Y-38100000D03*
X52070000Y-38100000D03*
X49530000Y-38100000D03*
X46990000Y-38100000D03*
X44450000Y-38100000D03*
X41910000Y-38100000D03*
X39370000Y-38100000D03*
X39370000Y-45720000D03*
X41910000Y-45720000D03*
X44450000Y-45720000D03*
X46990000Y-45720000D03*
X49530000Y-45720000D03*
X52070000Y-45720000D03*
X54610000Y-45720000D03*
X57150000Y-45720000D03*
X59690000Y-45720000D03*
X62230000Y-45720000D03*
D27*
X89620000Y-95870000D03*
X98420000Y-95870000D03*
D13*
X96520000Y-102870000D03*
X94020000Y-102870000D03*
X91520000Y-102870000D03*
D15*
X233680000Y-147320000D03*
D10*
X241300000Y-147320000D03*
D15*
X233045000Y-175895000D03*
D10*
X233045000Y-183515000D03*
D11*
X86360000Y-143510000D03*
D10*
X83820000Y-143510000D03*
X81280000Y-143510000D03*
X78740000Y-143510000D03*
X76200000Y-143510000D03*
X73660000Y-143510000D03*
X71120000Y-143510000D03*
X71120000Y-151130000D03*
X73660000Y-151130000D03*
X76200000Y-151130000D03*
X78740000Y-151130000D03*
X81280000Y-151130000D03*
X83820000Y-151130000D03*
X86360000Y-151130000D03*
D11*
X294640000Y-78740000D03*
D10*
X292100000Y-78740000D03*
X289560000Y-78740000D03*
X287020000Y-78740000D03*
X284480000Y-78740000D03*
X281940000Y-78740000D03*
X279400000Y-78740000D03*
X279400000Y-86360000D03*
X281940000Y-86360000D03*
X284480000Y-86360000D03*
X287020000Y-86360000D03*
X289560000Y-86360000D03*
X292100000Y-86360000D03*
X294640000Y-86360000D03*
D11*
X250190000Y-93980000D03*
D10*
X247650000Y-93980000D03*
X245110000Y-93980000D03*
X242570000Y-93980000D03*
X240030000Y-93980000D03*
X237490000Y-93980000D03*
X234950000Y-93980000D03*
X234950000Y-101600000D03*
X237490000Y-101600000D03*
X240030000Y-101600000D03*
X242570000Y-101600000D03*
X245110000Y-101600000D03*
X247650000Y-101600000D03*
X250190000Y-101600000D03*
D11*
X115570000Y-15240000D03*
D10*
X113030000Y-15240000D03*
X110490000Y-15240000D03*
X107950000Y-15240000D03*
X105410000Y-15240000D03*
X102870000Y-15240000D03*
X100330000Y-15240000D03*
X100330000Y-22860000D03*
X102870000Y-22860000D03*
X105410000Y-22860000D03*
X107950000Y-22860000D03*
X110490000Y-22860000D03*
X113030000Y-22860000D03*
X115570000Y-22860000D03*
D28*
X162560000Y-24130000D03*
D29*
X162560000Y-18130000D03*
D30*
X157860000Y-21130000D03*
D11*
X35560000Y-102235000D03*
D10*
X33020000Y-102235000D03*
X30480000Y-102235000D03*
X27940000Y-102235000D03*
X25400000Y-102235000D03*
X22860000Y-102235000D03*
X20320000Y-102235000D03*
X17780000Y-102235000D03*
X17780000Y-109855000D03*
X20320000Y-109855000D03*
X22860000Y-109855000D03*
X25400000Y-109855000D03*
X27940000Y-109855000D03*
X30480000Y-109855000D03*
X33020000Y-109855000D03*
X35560000Y-109855000D03*
D15*
X27940000Y-137160000D03*
X32940000Y-137160000D03*
X46990000Y-137160000D03*
X51990000Y-137160000D03*
X280670000Y-123110000D03*
X280670000Y-118110000D03*
X276860000Y-123110000D03*
X276860000Y-118110000D03*
X259080000Y-118190000D03*
X259080000Y-123190000D03*
X262890000Y-123110000D03*
X262890000Y-118110000D03*
X222330000Y-72390000D03*
X227330000Y-72390000D03*
X204470000Y-72390000D03*
X209470000Y-72390000D03*
X90805000Y-170180000D03*
X90805000Y-175180000D03*
X162560000Y-77470000D03*
X167560000Y-77470000D03*
X129460000Y-77470000D03*
X124460000Y-77470000D03*
X137160000Y-183562000D03*
X137160000Y-178562000D03*
X132080000Y-183562000D03*
X132080000Y-178562000D03*
X194945000Y-97790000D03*
X199945000Y-97790000D03*
X177245000Y-97790000D03*
X182245000Y-97790000D03*
D12*
X205740000Y-162560000D03*
D13*
X208280000Y-162560000D03*
D12*
X154940000Y-151130000D03*
D13*
X157480000Y-151130000D03*
D12*
X212090000Y-162560000D03*
D13*
X214630000Y-162560000D03*
D12*
X161290000Y-151130000D03*
D13*
X163830000Y-151130000D03*
D12*
X218440000Y-162560000D03*
D13*
X220980000Y-162560000D03*
D12*
X167640000Y-151130000D03*
D13*
X170180000Y-151130000D03*
D12*
X224790000Y-162560000D03*
D13*
X227330000Y-162560000D03*
D12*
X173990000Y-151130000D03*
D13*
X176530000Y-151130000D03*
D12*
X180340000Y-151130000D03*
D13*
X182880000Y-151130000D03*
D12*
X186690000Y-151130000D03*
D13*
X189230000Y-151130000D03*
D12*
X193040000Y-151130000D03*
D13*
X195580000Y-151130000D03*
D12*
X199390000Y-151130000D03*
D13*
X201930000Y-151130000D03*
D12*
X205740000Y-151130000D03*
D13*
X208280000Y-151130000D03*
D12*
X212090000Y-151130000D03*
D13*
X214630000Y-151130000D03*
D12*
X224790000Y-151130000D03*
D13*
X227330000Y-151130000D03*
D12*
X123190000Y-162560000D03*
D13*
X125730000Y-162560000D03*
D12*
X129540000Y-162560000D03*
D13*
X132080000Y-162560000D03*
D12*
X135890000Y-162560000D03*
D13*
X138430000Y-162560000D03*
D12*
X142240000Y-162560000D03*
D13*
X144780000Y-162560000D03*
D12*
X180340000Y-162560000D03*
D13*
X182880000Y-162560000D03*
D12*
X167640000Y-162560000D03*
D13*
X170180000Y-162560000D03*
D12*
X173990000Y-162560000D03*
D13*
X176530000Y-162560000D03*
D12*
X154940000Y-162560000D03*
D13*
X157480000Y-162560000D03*
D12*
X161290000Y-162560000D03*
D13*
X163830000Y-162560000D03*
D12*
X178435000Y-104140000D03*
D13*
X180975000Y-104140000D03*
D12*
X184785000Y-104140000D03*
D13*
X187325000Y-104140000D03*
D12*
X191135000Y-104140000D03*
D13*
X193675000Y-104140000D03*
D12*
X197485000Y-104140000D03*
D13*
X200025000Y-104140000D03*
D12*
X203835000Y-104140000D03*
D13*
X206375000Y-104140000D03*
D12*
X210185000Y-104140000D03*
D13*
X212725000Y-104140000D03*
D12*
X216535000Y-104140000D03*
D13*
X219075000Y-104140000D03*
D12*
X222885000Y-104140000D03*
D13*
X225425000Y-104140000D03*
D31*
X71120000Y-20320000D03*
D32*
X71120000Y-17780000D03*
X73660000Y-20320000D03*
X73660000Y-17780000D03*
X76200000Y-20320000D03*
X76200000Y-17780000D03*
X78740000Y-20320000D03*
X78740000Y-17780000D03*
X81280000Y-20320000D03*
X81280000Y-17780000D03*
X83820000Y-20320000D03*
X83820000Y-17780000D03*
X86360000Y-20320000D03*
X86360000Y-17780000D03*
X88900000Y-20320000D03*
X88900000Y-17780000D03*
X91440000Y-20320000D03*
X91440000Y-17780000D03*
D14*
X191770000Y-26670000D03*
D10*
X194310000Y-26670000D03*
X196850000Y-26670000D03*
X199390000Y-26670000D03*
X201930000Y-26670000D03*
X204470000Y-26670000D03*
X207010000Y-26670000D03*
X209550000Y-26670000D03*
X212090000Y-26670000D03*
D14*
X191770000Y-16510000D03*
D10*
X194310000Y-16510000D03*
X196850000Y-16510000D03*
X199390000Y-16510000D03*
X201930000Y-16510000D03*
X204470000Y-16510000D03*
X207010000Y-16510000D03*
X209550000Y-16510000D03*
X212090000Y-16510000D03*
D24*
X226695000Y-46990000D03*
D10*
X224155000Y-46990000D03*
X221615000Y-46990000D03*
X219075000Y-46990000D03*
X216535000Y-46990000D03*
X213995000Y-46990000D03*
X211455000Y-46990000D03*
X208915000Y-46990000D03*
X206375000Y-46990000D03*
D24*
X292100000Y-35814000D03*
D10*
X289560000Y-35814000D03*
X287020000Y-35814000D03*
X284480000Y-35814000D03*
X281940000Y-35814000D03*
X279400000Y-35814000D03*
X276860000Y-35814000D03*
X274320000Y-35814000D03*
X271780000Y-35814000D03*
D24*
X36830000Y-50038000D03*
D10*
X34290000Y-50038000D03*
X31750000Y-50038000D03*
X29210000Y-50038000D03*
X26670000Y-50038000D03*
X24130000Y-50038000D03*
X21590000Y-50038000D03*
X19050000Y-50038000D03*
X16510000Y-50038000D03*
D14*
X82550000Y-74930000D03*
D10*
X85090000Y-74930000D03*
X87630000Y-74930000D03*
X90170000Y-74930000D03*
X92710000Y-74930000D03*
X95250000Y-74930000D03*
X97790000Y-74930000D03*
X100330000Y-74930000D03*
X102870000Y-74930000D03*
D24*
X50165000Y-132080000D03*
D10*
X47625000Y-132080000D03*
X45085000Y-132080000D03*
X42545000Y-132080000D03*
X40005000Y-132080000D03*
X37465000Y-132080000D03*
X34925000Y-132080000D03*
X32385000Y-132080000D03*
X29845000Y-132080000D03*
D24*
X255270000Y-120650000D03*
D10*
X252730000Y-120650000D03*
X250190000Y-120650000D03*
X247650000Y-120650000D03*
X245110000Y-120650000D03*
X242570000Y-120650000D03*
X240030000Y-120650000D03*
X237490000Y-120650000D03*
X234950000Y-120650000D03*
D24*
X198755000Y-72390000D03*
D10*
X196215000Y-72390000D03*
X193675000Y-72390000D03*
X191135000Y-72390000D03*
X188595000Y-72390000D03*
X186055000Y-72390000D03*
X183515000Y-72390000D03*
X180975000Y-72390000D03*
X178435000Y-72390000D03*
D20*
X63500000Y-165100000D03*
D10*
X63500000Y-162560000D03*
X63500000Y-160020000D03*
X63500000Y-157480000D03*
X63500000Y-154940000D03*
X63500000Y-152400000D03*
X63500000Y-149860000D03*
X63500000Y-147320000D03*
X63500000Y-144780000D03*
D24*
X115570000Y-175895000D03*
D10*
X113030000Y-175895000D03*
X110490000Y-175895000D03*
X107950000Y-175895000D03*
X105410000Y-175895000D03*
X102870000Y-175895000D03*
X100330000Y-175895000D03*
X97790000Y-175895000D03*
X95250000Y-175895000D03*
D11*
X226060000Y-123190000D03*
D10*
X226060000Y-125730000D03*
X226060000Y-128270000D03*
X226060000Y-130810000D03*
X226060000Y-133350000D03*
X226060000Y-135890000D03*
X226060000Y-138430000D03*
X226060000Y-140970000D03*
X226060000Y-143510000D03*
D24*
X144780000Y-172720000D03*
D10*
X142240000Y-172720000D03*
X139700000Y-172720000D03*
X137160000Y-172720000D03*
X134620000Y-172720000D03*
X132080000Y-172720000D03*
X129540000Y-172720000D03*
X127000000Y-172720000D03*
X124460000Y-172720000D03*
D14*
X146050000Y-143510000D03*
D10*
X148590000Y-143510000D03*
X151130000Y-143510000D03*
X153670000Y-143510000D03*
X156210000Y-143510000D03*
X158750000Y-143510000D03*
X161290000Y-143510000D03*
X163830000Y-143510000D03*
X166370000Y-143510000D03*
D24*
X166370000Y-135890000D03*
D10*
X163830000Y-135890000D03*
X161290000Y-135890000D03*
X158750000Y-135890000D03*
X156210000Y-135890000D03*
X153670000Y-135890000D03*
X151130000Y-135890000D03*
X148590000Y-135890000D03*
X146050000Y-135890000D03*
D24*
X171450000Y-172720000D03*
D10*
X168910000Y-172720000D03*
X166370000Y-172720000D03*
X163830000Y-172720000D03*
X161290000Y-172720000D03*
X158750000Y-172720000D03*
X156210000Y-172720000D03*
X153670000Y-172720000D03*
X151130000Y-172720000D03*
D24*
X199390000Y-172720000D03*
D10*
X196850000Y-172720000D03*
X194310000Y-172720000D03*
X191770000Y-172720000D03*
X189230000Y-172720000D03*
X186690000Y-172720000D03*
X184150000Y-172720000D03*
X181610000Y-172720000D03*
X179070000Y-172720000D03*
D24*
X226060000Y-172720000D03*
D10*
X223520000Y-172720000D03*
X220980000Y-172720000D03*
X218440000Y-172720000D03*
X215900000Y-172720000D03*
X213360000Y-172720000D03*
X210820000Y-172720000D03*
X208280000Y-172720000D03*
X205740000Y-172720000D03*
D24*
X226695000Y-97790000D03*
D10*
X224155000Y-97790000D03*
X221615000Y-97790000D03*
X219075000Y-97790000D03*
X216535000Y-97790000D03*
X213995000Y-97790000D03*
X211455000Y-97790000D03*
X208915000Y-97790000D03*
X206375000Y-97790000D03*
D14*
X135890000Y-96520000D03*
D10*
X138430000Y-96520000D03*
X140970000Y-96520000D03*
X143510000Y-96520000D03*
X146050000Y-96520000D03*
X148590000Y-96520000D03*
X151130000Y-96520000D03*
X153670000Y-96520000D03*
X156210000Y-96520000D03*
D21*
X157330000Y-179015000D03*
X163830000Y-179015000D03*
X157330000Y-183515000D03*
X163830000Y-183515000D03*
D20*
X256540000Y-143510000D03*
D10*
X259080000Y-143510000D03*
X261620000Y-143510000D03*
X264160000Y-143510000D03*
X266700000Y-143510000D03*
X269240000Y-143510000D03*
X271780000Y-143510000D03*
X274320000Y-143510000D03*
X276860000Y-143510000D03*
X279400000Y-143510000D03*
X279400000Y-135890000D03*
X276860000Y-135890000D03*
X274320000Y-135890000D03*
X271780000Y-135890000D03*
X269240000Y-135890000D03*
X266700000Y-135890000D03*
X264160000Y-135890000D03*
X261620000Y-135890000D03*
X259080000Y-135890000D03*
X256540000Y-135890000D03*
D33*
X179070000Y-116840000D03*
D34*
X176530000Y-114300000D03*
X176530000Y-116840000D03*
X173990000Y-114300000D03*
X171450000Y-116840000D03*
X173990000Y-116840000D03*
X171450000Y-119380000D03*
X173990000Y-119380000D03*
X171450000Y-121920000D03*
X173990000Y-121920000D03*
X171450000Y-124460000D03*
X173990000Y-124460000D03*
X171450000Y-127000000D03*
X173990000Y-129540000D03*
X173990000Y-127000000D03*
X176530000Y-129540000D03*
X176530000Y-127000000D03*
X179070000Y-129540000D03*
X179070000Y-127000000D03*
X181610000Y-129540000D03*
X184150000Y-127000000D03*
X181610000Y-127000000D03*
X184150000Y-124460000D03*
X181610000Y-124460000D03*
X184150000Y-121920000D03*
X181610000Y-121920000D03*
X184150000Y-119380000D03*
X181610000Y-119380000D03*
X184150000Y-116840000D03*
X181610000Y-114300000D03*
X181610000Y-116840000D03*
X179070000Y-114300000D03*
D33*
X133350000Y-116840000D03*
D34*
X130810000Y-114300000D03*
X130810000Y-116840000D03*
X128270000Y-114300000D03*
X125730000Y-116840000D03*
X128270000Y-116840000D03*
X125730000Y-119380000D03*
X128270000Y-119380000D03*
X125730000Y-121920000D03*
X128270000Y-121920000D03*
X125730000Y-124460000D03*
X128270000Y-124460000D03*
X125730000Y-127000000D03*
X128270000Y-129540000D03*
X128270000Y-127000000D03*
X130810000Y-129540000D03*
X130810000Y-127000000D03*
X133350000Y-129540000D03*
X133350000Y-127000000D03*
X135890000Y-129540000D03*
X138430000Y-127000000D03*
X135890000Y-127000000D03*
X138430000Y-124460000D03*
X135890000Y-124460000D03*
X138430000Y-121920000D03*
X135890000Y-121920000D03*
X138430000Y-119380000D03*
X135890000Y-119380000D03*
X138430000Y-116840000D03*
X135890000Y-114300000D03*
X135890000Y-116840000D03*
X133350000Y-114300000D03*
D33*
X201930000Y-116840000D03*
D34*
X199390000Y-114300000D03*
X199390000Y-116840000D03*
X196850000Y-114300000D03*
X194310000Y-116840000D03*
X196850000Y-116840000D03*
X194310000Y-119380000D03*
X196850000Y-119380000D03*
X194310000Y-121920000D03*
X196850000Y-121920000D03*
X194310000Y-124460000D03*
X196850000Y-124460000D03*
X194310000Y-127000000D03*
X196850000Y-129540000D03*
X196850000Y-127000000D03*
X199390000Y-129540000D03*
X199390000Y-127000000D03*
X201930000Y-129540000D03*
X201930000Y-127000000D03*
X204470000Y-129540000D03*
X207010000Y-127000000D03*
X204470000Y-127000000D03*
X207010000Y-124460000D03*
X204470000Y-124460000D03*
X207010000Y-121920000D03*
X204470000Y-121920000D03*
X207010000Y-119380000D03*
X204470000Y-119380000D03*
X207010000Y-116840000D03*
X204470000Y-114300000D03*
X204470000Y-116840000D03*
X201930000Y-114300000D03*
D33*
X156210000Y-116840000D03*
D34*
X153670000Y-114300000D03*
X153670000Y-116840000D03*
X151130000Y-114300000D03*
X148590000Y-116840000D03*
X151130000Y-116840000D03*
X148590000Y-119380000D03*
X151130000Y-119380000D03*
X148590000Y-121920000D03*
X151130000Y-121920000D03*
X148590000Y-124460000D03*
X151130000Y-124460000D03*
X148590000Y-127000000D03*
X151130000Y-129540000D03*
X151130000Y-127000000D03*
X153670000Y-129540000D03*
X153670000Y-127000000D03*
X156210000Y-129540000D03*
X156210000Y-127000000D03*
X158750000Y-129540000D03*
X161290000Y-127000000D03*
X158750000Y-127000000D03*
X161290000Y-124460000D03*
X158750000Y-124460000D03*
X161290000Y-121920000D03*
X158750000Y-121920000D03*
X161290000Y-119380000D03*
X158750000Y-119380000D03*
X161290000Y-116840000D03*
X158750000Y-114300000D03*
X158750000Y-116840000D03*
X156210000Y-114300000D03*
D20*
X124460000Y-143510000D03*
D10*
X127000000Y-143510000D03*
X129540000Y-143510000D03*
X132080000Y-143510000D03*
X134620000Y-143510000D03*
X137160000Y-143510000D03*
X139700000Y-143510000D03*
X142240000Y-143510000D03*
X142240000Y-135890000D03*
X139700000Y-135890000D03*
X137160000Y-135890000D03*
X134620000Y-135890000D03*
X132080000Y-135890000D03*
X129540000Y-135890000D03*
X127000000Y-135890000D03*
X124460000Y-135890000D03*
D20*
X170180000Y-143510000D03*
D10*
X172720000Y-143510000D03*
X175260000Y-143510000D03*
X177800000Y-143510000D03*
X180340000Y-143510000D03*
X182880000Y-143510000D03*
X185420000Y-143510000D03*
X187960000Y-143510000D03*
X187960000Y-135890000D03*
X185420000Y-135890000D03*
X182880000Y-135890000D03*
X180340000Y-135890000D03*
X177800000Y-135890000D03*
X175260000Y-135890000D03*
X172720000Y-135890000D03*
X170180000Y-135890000D03*
D11*
X209550000Y-135890000D03*
D10*
X207010000Y-135890000D03*
X204470000Y-135890000D03*
X201930000Y-135890000D03*
X199390000Y-135890000D03*
X196850000Y-135890000D03*
X194310000Y-135890000D03*
X191770000Y-135890000D03*
X191770000Y-143510000D03*
X194310000Y-143510000D03*
X196850000Y-143510000D03*
X199390000Y-143510000D03*
X201930000Y-143510000D03*
X204470000Y-143510000D03*
X207010000Y-143510000D03*
X209550000Y-143510000D03*
D20*
X204470000Y-92710000D03*
D10*
X207010000Y-92710000D03*
X209550000Y-92710000D03*
X212090000Y-92710000D03*
X214630000Y-92710000D03*
X217170000Y-92710000D03*
X219710000Y-92710000D03*
X222250000Y-92710000D03*
X224790000Y-92710000D03*
X227330000Y-92710000D03*
X227330000Y-85090000D03*
X224790000Y-85090000D03*
X222250000Y-85090000D03*
X219710000Y-85090000D03*
X217170000Y-85090000D03*
X214630000Y-85090000D03*
X212090000Y-85090000D03*
X209550000Y-85090000D03*
X207010000Y-85090000D03*
X204470000Y-85090000D03*
D20*
X177165000Y-92710000D03*
D10*
X179705000Y-92710000D03*
X182245000Y-92710000D03*
X184785000Y-92710000D03*
X187325000Y-92710000D03*
X189865000Y-92710000D03*
X192405000Y-92710000D03*
X194945000Y-92710000D03*
X197485000Y-92710000D03*
X200025000Y-92710000D03*
X200025000Y-85090000D03*
X197485000Y-85090000D03*
X194945000Y-85090000D03*
X192405000Y-85090000D03*
X189865000Y-85090000D03*
X187325000Y-85090000D03*
X184785000Y-85090000D03*
X182245000Y-85090000D03*
X179705000Y-85090000D03*
X177165000Y-85090000D03*
D11*
X162560000Y-33020000D03*
D15*
X162560000Y-35020000D03*
X71120000Y-102235000D03*
X76120000Y-102235000D03*
X141605000Y-178515000D03*
X141605000Y-183515000D03*
X71120000Y-106680000D03*
X76120000Y-106680000D03*
X121920000Y-15240000D03*
D10*
X121920000Y-22860000D03*
D15*
X128270000Y-15240000D03*
D10*
X128270000Y-22860000D03*
D15*
X177800000Y-185420000D03*
D10*
X177800000Y-177800000D03*
D15*
X171450000Y-185420000D03*
D10*
X171450000Y-177800000D03*
D15*
X124460000Y-177800000D03*
D10*
X124460000Y-185420000D03*
D14*
X295910000Y-59690000D03*
D10*
X295910000Y-62230000D03*
X295910000Y-64770000D03*
X295910000Y-67310000D03*
X295910000Y-69850000D03*
X295910000Y-72390000D03*
X295910000Y-74930000D03*
X303530000Y-74930000D03*
X303530000Y-72390000D03*
X303530000Y-69850000D03*
X303530000Y-67310000D03*
X303530000Y-64770000D03*
X303530000Y-62230000D03*
X303530000Y-59690000D03*
D14*
X295910000Y-39370000D03*
D10*
X295910000Y-41910000D03*
X295910000Y-44450000D03*
X295910000Y-46990000D03*
X295910000Y-49530000D03*
X295910000Y-52070000D03*
X295910000Y-54610000D03*
X303530000Y-54610000D03*
X303530000Y-52070000D03*
X303530000Y-49530000D03*
X303530000Y-46990000D03*
X303530000Y-44450000D03*
X303530000Y-41910000D03*
X303530000Y-39370000D03*
D20*
X184150000Y-185420000D03*
D10*
X186690000Y-185420000D03*
X189230000Y-185420000D03*
X191770000Y-185420000D03*
X194310000Y-185420000D03*
X196850000Y-185420000D03*
X199390000Y-185420000D03*
X199390000Y-177800000D03*
X196850000Y-177800000D03*
X194310000Y-177800000D03*
X191770000Y-177800000D03*
X189230000Y-177800000D03*
X186690000Y-177800000D03*
X184150000Y-177800000D03*
D20*
X71120000Y-176530000D03*
D10*
X73660000Y-176530000D03*
X76200000Y-176530000D03*
X78740000Y-176530000D03*
X81280000Y-176530000D03*
X83820000Y-176530000D03*
X86360000Y-176530000D03*
X86360000Y-168910000D03*
X83820000Y-168910000D03*
X81280000Y-168910000D03*
X78740000Y-168910000D03*
X76200000Y-168910000D03*
X73660000Y-168910000D03*
X71120000Y-168910000D03*
D11*
X168910000Y-85090000D03*
D10*
X166370000Y-85090000D03*
X163830000Y-85090000D03*
X161290000Y-85090000D03*
X158750000Y-85090000D03*
X156210000Y-85090000D03*
X153670000Y-85090000D03*
X153670000Y-92710000D03*
X156210000Y-92710000D03*
X158750000Y-92710000D03*
X161290000Y-92710000D03*
X163830000Y-92710000D03*
X166370000Y-92710000D03*
X168910000Y-92710000D03*
D15*
X74930000Y-28575000D03*
X69930000Y-28575000D03*
D35*
X13970000Y-12700000D03*
X306070000Y-12700000D03*
X13970000Y-187960000D03*
X306070000Y-187960000D03*
D36*
X79375000Y-124460000D03*
X81280000Y-135890000D03*
X102870000Y-135890000D03*
X207010000Y-38608000D03*
X200025000Y-38608000D03*
X252730000Y-91440000D03*
X268732000Y-77724000D03*
X279400000Y-71755000D03*
X176530000Y-167640000D03*
X170180000Y-167640000D03*
X263525000Y-71120000D03*
X212090000Y-156210000D03*
X157480000Y-167640000D03*
X182880000Y-167640000D03*
X43180000Y-50165000D03*
X254635000Y-161925000D03*
X92710000Y-50165000D03*
X113030000Y-50800000D03*
X105918000Y-48260000D03*
X59690000Y-67310000D03*
X48260000Y-85090000D03*
X237490000Y-112268000D03*
X302260000Y-112014000D03*
X293370000Y-125730000D03*
X298450000Y-125730000D03*
X207010000Y-64008000D03*
X200025000Y-64008000D03*
X89535000Y-163830000D03*
X163830000Y-82550000D03*
X165100000Y-50800000D03*
X154940000Y-77470000D03*
X161290000Y-90678000D03*
X163830000Y-167640000D03*
X208280000Y-167640000D03*
X71120000Y-36830000D03*
X214630000Y-167640000D03*
X220980000Y-167640000D03*
X227330000Y-167640000D03*
X222250000Y-133350000D03*
X207010000Y-89408000D03*
X200025000Y-89408000D03*
D37*
X54610000Y-160020000D03*
D38*
X53310000Y-160020000D03*
M02*
